<svg width="115" height="95" viewBox="0 0 115 95" fill="none" xmlns="http://www.w3.org/2000/svg">
<path d="M52.106 10.1468C51.5435 3.87666 40.9314 1.09215 32.1395 2.98142C24.2645 4.67362 17.5144 8.76893 17.5144 17.9326C4.57702 19.3796 -2.73579 35.7778 6.07767 44.5581C-1.04833 51.2114 1.63544 66.3906 10.4814 68.9559C10.4814 76.9559 13.0144 76.728 15.3417 79.0542C15.3417 82.5607 17.5144 84.1609 19.6428 84.1609C20.8894 88.8306 28.202 93.6536 36.0769 91.4225C39.452 93.1713 41.6687 93.615 44.5145 93.1713C47.989 92.6301 53.231 91.6559 52.106 84.9037" stroke="white" stroke-width="3" stroke-linecap="round"/>
<path d="M52.106 84.9033L52.1064 10.1465" stroke="white" stroke-width="3"/>
<path d="M18.0268 13.9736C17.7157 15.1826 17.7143 16.4354 17.7947 17.6716C17.9189 19.5814 18.5611 21.3907 19.486 23.0887C20.5519 25.0457 22.4505 26.6979 24.5952 27.5682C25.4866 27.9301 26.4575 28.1178 27.4094 28.2718C27.9377 28.3574 28.4768 28.3438 29.0004 28.4427" stroke="white" stroke-width="3" stroke-linecap="round"/>
<path d="M38.1667 21.6309C34.0793 23.2997 31.11 26.6555 31.3114 30.6484C31.4091 32.5854 32.271 34.5748 33.4445 36.2249C33.7108 36.5994 34.2348 36.9207 34.3938 37.3296" stroke="white" stroke-width="3" stroke-linecap="round"/>
<path d="M3.73145 47.7344C4.25358 47.1872 5.26226 46.1512 5.83908 45.6173C7.09178 44.4578 8.64202 43.7078 10.2901 43.0484C11.8572 42.4214 13.6231 42.3414 15.3083 42.0864" stroke="white" stroke-width="3" stroke-linecap="round"/>
<path d="M52.1062 66.5757C52.014 69.8434 50.0679 73.4492 47.582 76.1018C46.5301 77.2242 44.5869 78.8675 42.5435 78.6053" stroke="white" stroke-width="3" stroke-linecap="round"/>
<path d="M38.1896 92.3783C36.4711 91.6625 35.5122 90.6912 34.6685 89.2443C34.106 88.2797 33.7369 87.3151 33.5434 85.8682C33.2451 83.6371 33.5434 83.4567 34.1726 82.9956" stroke="white" stroke-width="3" stroke-linecap="round"/>
<path d="M31.2637 78.6602C31.8207 80.1991 33.2069 81.4506 34.8306 82.243C36.3139 82.9666 38.3291 83.0544 39.9904 82.8171" stroke="white" stroke-width="3" stroke-linecap="round"/>
<path d="M25.1968 62.4941C25.6204 64.8942 26.8942 67.3251 28.9114 69.0535C30.2424 70.194 31.9527 70.7981 33.8048 70.9448" stroke="white" stroke-width="3" stroke-linecap="round"/>
<path d="M11.1267 69.1115C12.8456 69.9135 14.9297 70.2762 16.8625 69.9425C18.1378 69.7223 19.2216 69.0706 20.0678 68.1475" stroke="white" stroke-width="3" stroke-linecap="round"/>
<path d="M23.4189 49.6636C24.0853 49.6636 24.8251 49.8932 25.4429 50.0792C26.9518 50.5336 28.1357 51.3507 29.1559 52.3985C30.552 53.8323 31.6616 55.4519 32.0648 57.3076C32.3676 58.7003 32.2842 60.1302 32.2842 61.5402" stroke="white" stroke-width="3" stroke-linecap="round"/>
<path d="M38.0442 46.77C36.8052 46.8818 35.7476 47.6543 35.0394 48.1831C33.6213 49.242 32.7044 50.6053 32.0683 51.8864C31.6324 52.7643 31.3152 53.6972 31.2943 54.6166C31.2878 54.8986 31.3809 55.1702 31.3809 55.4514" stroke="white" stroke-width="3" stroke-linecap="round"/>
<path d="M107.75 52.5C85.2499 48.9998 56.9709 62.077 58.8319 78.7261L58.8319 92C74.1843 88.933 84.25 96.9998 90.9324 84.86L107.75 52.5Z" fill="url(#paint0_linear_274_131)"/>
<path d="M97.3181 17.4455C99.9175 8.43471 74.9634 -8.58522 58.75 7.93453V21.9509V39V42.5V65C71.8441 41.4725 108.75 49 108.75 49C124.75 33 100.957 17.4455 97.3181 17.4455Z" fill="white"/>
<path d="M58.75 91H59.3971L71.6912 84.9831L80.75 72" stroke="#353535" stroke-width="2.5"/>
<path d="M80.25 85.5L75.7498 88.0001L68.75 87" stroke="#353535" stroke-width="1.2"/>
<path d="M81.8168 85.0844C81.8709 84.5466 81.4821 84.0619 80.9186 84.028C80.355 83.9941 79.874 84.4265 79.8199 84.9643C79.7659 85.5019 80.1547 85.9867 80.7182 86.0206C81.2818 86.0545 81.7628 85.6221 81.8168 85.0844Z" stroke="#353535"/>
<path d="M81.6823 68.0011C82.7611 67.9655 83.7106 68.8058 83.7488 69.9341C83.787 71.0623 82.8965 71.9633 81.8176 71.9989C80.7389 72.0345 79.7893 71.1942 79.7512 70.0659C79.7129 68.9377 80.6035 68.0367 81.6823 68.0011Z" stroke="#353535" stroke-width="2"/>
<defs>
<linearGradient id="paint0_linear_274_131" x1="78.3712" y1="55.9432" x2="78.3712" y2="91.8701" gradientUnits="userSpaceOnUse">
<stop stop-color="#D3CE31"/>
</linearGradient>
</defs>
</svg>
